<svg xmlns="http://www.w3.org/2000/svg" xmlns:xlink="http://www.w3.org/1999/xlink" viewBox="0 0 512 512" width="512" height="512" style="width: 100%; height: 100%; transform: translate3d(0,0,0); content-visibility: visible;" preserveAspectRatio="xMidYMid meet"><defs><clipPath id="__lottie_element_2"><rect width="512" height="512" x="0" y="0"></rect></clipPath><clipPath id="__lottie_element_4"><path d="M0,0 L512,0 L512,512 L0,512z"></path></clipPath><clipPath id="__lottie_element_11"><path d="M0,0 L512,0 L512,512 L0,512z"></path></clipPath><clipPath id="__lottie_element_18"><path d="M0,0 L512,0 L512,512 L0,512z"></path></clipPath></defs><g clip-path="url(#__lottie_element_2)"><g style="display: block;" transform="matrix(1.059999942779541,0,0,1.059999942779541,258.20001220703125,238.90499877929688)" opacity="1"><g opacity="1" transform="matrix(1,0,0,1,0,0)"><path stroke-linecap="round" stroke-linejoin="round" fill-opacity="0" stroke="rgb(50,171,254)" stroke-opacity="1" stroke-width="2" d=" M2.6679999828338623,194.97300720214844 C2.6679999828338623,194.97300720214844 68.75,3.187999963760376 68.75,3.187999963760376 C68.75,3.187999963760376 188.68800354003906,-34 188.68800354003906,-34 C188.68800354003906,-34 2.6679999828338623,194.97300720214844 2.6679999828338623,194.97300720214844z"></path><path fill="rgb(50,171,254)" fill-opacity="1" d=" M2.6679999828338623,194.97300720214844 C2.6679999828338623,194.97300720214844 68.75,3.187999963760376 68.75,3.187999963760376 C68.75,3.187999963760376 188.68800354003906,-34 188.68800354003906,-34 C188.68800354003906,-34 2.6679999828338623,194.97300720214844 2.6679999828338623,194.97300720214844z"></path></g></g><g style="display: block;" transform="matrix(1.059999942779541,0,0,1.059999942779541,258.20001220703125,238.90499877929688)" opacity="1"><g opacity="1" transform="matrix(1,0,0,1,0,0)"><path stroke-linecap="round" stroke-linejoin="round" fill-opacity="0" stroke="rgb(118,216,255)" stroke-opacity="1" stroke-width="2" d=" M2.6679999828338623,194.97300720214844 C2.6679999828338623,194.97300720214844 -99,-2.187999963760376 -99,-2.187999963760376 C-99,-2.187999963760376 68.75,3.187999963760376 68.75,3.187999963760376 C68.75,3.187999963760376 2.6679999828338623,194.97300720214844 2.6679999828338623,194.97300720214844z"></path><path fill="rgb(118,216,255)" fill-opacity="1" d=" M2.6679999828338623,194.97300720214844 C2.6679999828338623,194.97300720214844 -99,-2.187999963760376 -99,-2.187999963760376 C-99,-2.187999963760376 68.75,3.187999963760376 68.75,3.187999963760376 C68.75,3.187999963760376 2.6679999828338623,194.97300720214844 2.6679999828338623,194.97300720214844z"></path></g></g><g style="display: block;" transform="matrix(1.059999942779541,0,0,1.059999942779541,258.20001220703125,238.90499877929688)" opacity="1"><g opacity="1" transform="matrix(1,0,0,1,0,0)"><path stroke-linecap="round" stroke-linejoin="round" fill-opacity="0" stroke="rgb(80,185,245)" stroke-opacity="1" stroke-width="2" d=" M2.6679999828338623,194.97300720214844 C2.6679999828338623,194.97300720214844 -99,-2.187999963760376 -99,-2.187999963760376 C-99,-2.187999963760376 -191.56199645996094,-46.25 -191.56199645996094,-46.25 C-191.56199645996094,-46.25 2.6679999828338623,194.97300720214844 2.6679999828338623,194.97300720214844z"></path><path fill="rgb(80,185,245)" fill-opacity="1" d=" M2.6679999828338623,194.97300720214844 C2.6679999828338623,194.97300720214844 -99,-2.187999963760376 -99,-2.187999963760376 C-99,-2.187999963760376 -191.56199645996094,-46.25 -191.56199645996094,-46.25 C-191.56199645996094,-46.25 2.6679999828338623,194.97300720214844 2.6679999828338623,194.97300720214844z"></path></g></g><g style="display: block;" transform="matrix(1.059999942779541,0,0,1.059999942779541,258.20001220703125,238.90499877929688)" opacity="1"><g opacity="1" transform="matrix(1,0,0,1,0,0)"><path stroke-linecap="round" stroke-linejoin="round" fill-opacity="0" stroke="rgb(115,201,249)" stroke-opacity="1" stroke-width="2" d=" M-118.23899841308594,-101.33899688720703 C-118.23899841308594,-101.33899688720703 -191.5399932861328,-46.26900100708008 -191.5399932861328,-46.26900100708008 C-191.5399932861328,-46.26900100708008 -99.02999877929688,-2.2130000591278076 -99.02999877929688,-2.2130000591278076 C-99.02999877929688,-2.2130000591278076 -118.23899841308594,-101.33899688720703 -118.23899841308594,-101.33899688720703z"></path><path fill="rgb(115,201,249)" fill-opacity="1" d=" M-118.23899841308594,-101.33899688720703 C-118.23899841308594,-101.33899688720703 -191.5399932861328,-46.26900100708008 -191.5399932861328,-46.26900100708008 C-191.5399932861328,-46.26900100708008 -99.02999877929688,-2.2130000591278076 -99.02999877929688,-2.2130000591278076 C-99.02999877929688,-2.2130000591278076 -118.23899841308594,-101.33899688720703 -118.23899841308594,-101.33899688720703z"></path></g></g><g style="display: block;" transform="matrix(1.059999942779541,0,0,1.059999942779541,258.20001220703125,238.90499877929688)" opacity="1"><g opacity="1" transform="matrix(1,0,0,1,0,0)"><path stroke-linecap="round" stroke-linejoin="round" fill-opacity="0" stroke="rgb(97,182,245)" stroke-opacity="1" stroke-width="2" d=" M-11.89900016784668,-81.18000030517578 C-11.89900016784668,-81.18000030517578 -99.02999877929688,-2.2130000591278076 -99.02999877929688,-2.2130000591278076 C-99.02999877929688,-2.2130000591278076 68.76699829101562,3.2060000896453857 68.76699829101562,3.2060000896453857 C68.76699829101562,3.2060000896453857 -11.89900016784668,-81.18000030517578 -11.89900016784668,-81.18000030517578z"></path><path fill="rgb(97,182,245)" fill-opacity="1" d=" M-11.89900016784668,-81.18000030517578 C-11.89900016784668,-81.18000030517578 -99.02999877929688,-2.2130000591278076 -99.02999877929688,-2.2130000591278076 C-99.02999877929688,-2.2130000591278076 68.76699829101562,3.2060000896453857 68.76699829101562,3.2060000896453857 C68.76699829101562,3.2060000896453857 -11.89900016784668,-81.18000030517578 -11.89900016784668,-81.18000030517578z"></path></g></g><g style="display: block;" transform="matrix(1.059999942779541,0,0,1.059999942779541,258.20001220703125,238.90499877929688)" opacity="1"><g opacity="1" transform="matrix(1,0,0,1,0,0)"><path stroke-linecap="round" stroke-linejoin="round" fill-opacity="0" stroke="rgb(117,195,253)" stroke-opacity="1" stroke-width="2" d=" M106.6780014038086,-94.16899871826172 C106.6780014038086,-94.16899871826172 68.76699829101562,3.2060000896453857 68.76699829101562,3.2060000896453857 C68.76699829101562,3.2060000896453857 188.70599365234375,-33.98400115966797 188.70599365234375,-33.98400115966797 C188.70599365234375,-33.98400115966797 106.6780014038086,-94.16899871826172 106.6780014038086,-94.16899871826172z"></path><path fill="rgb(117,195,253)" fill-opacity="1" d=" M106.6780014038086,-94.16899871826172 C106.6780014038086,-94.16899871826172 68.76699829101562,3.2060000896453857 68.76699829101562,3.2060000896453857 C68.76699829101562,3.2060000896453857 188.70599365234375,-33.98400115966797 188.70599365234375,-33.98400115966797 C188.70599365234375,-33.98400115966797 106.6780014038086,-94.16899871826172 106.6780014038086,-94.16899871826172z"></path></g></g><g style="display: block;" transform="matrix(1.059999942779541,0,0,1.059999942779541,258.20001220703125,238.90499877929688)" opacity="1"><g opacity="1" transform="matrix(1,0,0,1,0,0)"><path fill="rgb(103,186,249)" fill-opacity="1" d=" M68.76699829101562,3.2060000896453857 C68.76699829101562,3.2060000896453857 106.6780014038086,-94.16899871826172 106.6780014038086,-94.16899871826172 C106.6780014038086,-94.16899871826172 -11.89900016784668,-81.18000030517578 -11.89900016784668,-81.18000030517578 C-11.89900016784668,-81.18000030517578 68.76699829101562,3.2060000896453857 68.76699829101562,3.2060000896453857z"></path></g></g><g style="display: block;" transform="matrix(1.059999942779541,0,0,1.059999942779541,258.20001220703125,238.90499877929688)" opacity="1"><g opacity="1" transform="matrix(1,0,0,1,0,0)"><path fill="rgb(185,230,255)" fill-opacity="1" d=" M-99.02999877929688,-2.2130000591278076 C-99.02999877929688,-2.2130000591278076 -118.23899841308594,-101.33899688720703 -118.23899841308594,-101.33899688720703 C-118.23899841308594,-101.33899688720703 -11.89900016784668,-81.18000030517578 -11.89900016784668,-81.18000030517578 C-11.89900016784668,-81.18000030517578 -99.02999877929688,-2.2130000591278076 -99.02999877929688,-2.2130000591278076z"></path></g></g><g style="display: block;" transform="matrix(1.059999942779541,0,0,1.059999942779541,258.20001220703125,238.90499877929688)" opacity="1"><g opacity="1" transform="matrix(1,0,0,1,0,0)"><path fill="rgb(94,175,234)" fill-opacity="1" d=" M-191.5399932861328,-46.26900100708008 C-191.5399932861328,-46.26900100708008 -134.2969970703125,-139.85499572753906 -134.2969970703125,-139.85499572753906 C-134.2969970703125,-139.85499572753906 -118.23899841308594,-101.33899688720703 -118.23899841308594,-101.33899688720703 C-118.23899841308594,-101.33899688720703 -191.5399932861328,-46.26900100708008 -191.5399932861328,-46.26900100708008z"></path></g></g><g style="display: block;" transform="matrix(1.059999942779541,0,0,1.059999942779541,258.20001220703125,238.90499877929688)" opacity="1"><g opacity="1" transform="matrix(1,0,0,1,0,0)"><path fill="rgb(107,184,243)" fill-opacity="1" d=" M188.70599365234375,-33.98400115966797 C188.70599365234375,-33.98400115966797 106.6780014038086,-94.16899871826172 106.6780014038086,-94.16899871826172 C106.6780014038086,-94.16899871826172 147.1510009765625,-131.25900268554688 147.1510009765625,-131.25900268554688 C147.1510009765625,-131.25900268554688 188.70599365234375,-33.98400115966797 188.70599365234375,-33.98400115966797z"></path></g></g><g style="display: block;" transform="matrix(-0.051911160349845886,-0.674645721912384,1.1116141080856323,-0.08553404361009598,319.2603454589844,102.04862213134766)" opacity="1"><g opacity="1" transform="matrix(1,0,0,1,0,0)"><path fill="rgb(199,233,255)" fill-opacity="1" d=" M38.48500061035156,-179.84500122070312 C38.48500061035156,-179.84500122070312 -22.42300033569336,-168.1060028076172 -22.42300033569336,-168.1060028076172 C-22.42300033569336,-168.1060028076172 -66.2509994506836,-69.48500061035156 -66.2509994506836,-69.48500061035156 C-66.2509994506836,-69.48500061035156 -60.04600143432617,43.678001403808594 -60.04600143432617,43.678001403808594 C-60.04600143432617,43.678001403808594 -8.26099967956543,83.00299835205078 -8.26099967956543,83.00299835205078 C-8.26099967956543,83.00299835205078 54.016998291015625,24.100000381469727 54.016998291015625,24.100000381469727 C54.016998291015625,24.100000381469727 74.30899810791016,-95.08799743652344 74.30899810791016,-95.08799743652344 C74.30899810791016,-95.08799743652344 38.48500061035156,-179.84500122070312 38.48500061035156,-179.84500122070312z"></path><path stroke-linecap="round" stroke-linejoin="round" fill-opacity="0" stroke="rgb(199,234,255)" stroke-opacity="1" stroke-width="2" d=" M38.48500061035156,-179.84500122070312 C38.48500061035156,-179.84500122070312 -22.42300033569336,-168.1060028076172 -22.42300033569336,-168.1060028076172 C-22.42300033569336,-168.1060028076172 -66.2509994506836,-69.48500061035156 -66.2509994506836,-69.48500061035156 C-66.2509994506836,-69.48500061035156 -60.04600143432617,43.678001403808594 -60.04600143432617,43.678001403808594 C-60.04600143432617,43.678001403808594 -8.26099967956543,83.00299835205078 -8.26099967956543,83.00299835205078 C-8.26099967956543,83.00299835205078 54.016998291015625,24.100000381469727 54.016998291015625,24.100000381469727 C54.016998291015625,24.100000381469727 74.30899810791016,-95.08799743652344 74.30899810791016,-95.08799743652344 C74.30899810791016,-95.08799743652344 38.48500061035156,-179.84500122070312 38.48500061035156,-179.84500122070312z"></path></g></g><g clip-path="url(#__lottie_element_18)" style="display: block;" transform="matrix(1.059999942779541,0,0,1.059999942779541,-13.15997314453125,-32.454986572265625)" opacity="1"><g style="display: none;"><g><path></path></g></g></g><g clip-path="url(#__lottie_element_11)" style="display: block;" transform="matrix(1.059999942779541,0,0,1.059999942779541,-13.15997314453125,-32.454986572265625)" opacity="1"><g style="display: none;"><g><path stroke-linecap="round" stroke-linejoin="round" fill-opacity="0"></path></g></g></g><g clip-path="url(#__lottie_element_4)" style="display: block;" transform="matrix(1.059999942779541,0,0,1.059999942779541,-13.15997314453125,-32.454986572265625)" opacity="1"><g style="display: none;"><g><path></path></g></g></g></g></svg>