<svg width="20" height="20" viewBox="0 0 20 20" fill="none" xmlns="http://www.w3.org/2000/svg">
<path d="M15.625 2.5H4.375C2.625 2.5 1.25 3.875 1.25 5.625V14.375C1.25 16.125 2.625 17.5 4.375 17.5H15.625C17.375 17.5 18.75 16.125 18.75 14.375V5.625C18.75 3.875 17.375 2.5 15.625 2.5ZM4.375 6.875C4.375 6.5 4.625 6.25 5 6.25H8.75C9.125 6.25 9.375 6.5 9.375 6.875V10.625C9.375 11 9.125 11.25 8.75 11.25H5C4.625 11.25 4.375 11 4.375 10.625V6.875ZM15 13.75H5C4.625 13.75 4.375 13.5 4.375 13.125C4.375 12.75 4.625 12.5 5 12.5H15C15.375 12.5 15.625 12.75 15.625 13.125C15.625 13.5 15.375 13.75 15 13.75ZM15 11.25H11.25C10.875 11.25 10.625 11 10.625 10.625C10.625 10.25 10.875 10 11.25 10H15C15.375 10 15.625 10.25 15.625 10.625C15.625 11 15.375 11.25 15 11.25Z" fill="white"/>
</svg>
